<svg width="360" height="173" viewBox="0 0 360 173" fill="none" xmlns="http://www.w3.org/2000/svg">
<rect x="167" y="88" width="88" height="193" transform="rotate(-90 167 88)" fill="#CCCCCC"/>
<path d="M0 88L-6.80349e-06 1.47556e-08L151 -3.71703e-06L151 88L0 88Z" fill="#CCCCCC"/>
<path d="M0 173L-5.48918e-06 102L151 102L151 173L0 173Z" fill="#CCCCCC"/>
<path d="M168 173L168 102L361 102L361 173L168 173Z" fill="#CCCCCC"/>
<path d="M27.0559 97.0992L28.0129 92.0406H29.4728L27.8957 99.15H26.4211L25.2639 94.3941L24.1066 99.15H22.632L21.0549 92.0406H22.5148L23.4768 97.0895L24.6486 92.0406H25.8889L27.0559 97.0992ZM38.2961 97.0992L39.2531 92.0406H40.7131L39.1359 99.15H37.6613L36.5041 94.3941L35.3469 99.15H33.8723L32.2951 92.0406H33.7551L34.717 97.0895L35.8889 92.0406H37.1291L38.2961 97.0992ZM44.3117 99.15C44.2466 99.0231 44.1994 98.8652 44.1701 98.6764C43.8283 99.0572 43.384 99.2477 42.8371 99.2477C42.3195 99.2477 41.8898 99.0979 41.548 98.7984C41.2095 98.499 41.0402 98.1214 41.0402 97.6656C41.0402 97.1057 41.2469 96.6761 41.6603 96.3766C42.077 96.0771 42.6776 95.9257 43.4621 95.9225H44.1115V95.6197C44.1115 95.3756 44.048 95.1803 43.9211 95.0338C43.7974 94.8873 43.6004 94.8141 43.3303 94.8141C43.0926 94.8141 42.9055 94.871 42.7687 94.985C42.6353 95.0989 42.5685 95.2552 42.5685 95.4537H41.1574C41.1574 95.1477 41.2518 94.8645 41.4406 94.6041C41.6294 94.3437 41.8963 94.1402 42.2414 93.9938C42.5865 93.844 42.9738 93.7691 43.4035 93.7691C44.0546 93.7691 44.5705 93.9335 44.9514 94.2623C45.3355 94.5878 45.5275 95.0468 45.5275 95.6393V97.9293C45.5308 98.4306 45.6008 98.8098 45.7375 99.067V99.15H44.3117ZM43.1447 98.1686C43.3531 98.1686 43.5451 98.123 43.7209 98.0318C43.8967 97.9374 44.0269 97.8121 44.1115 97.6559V96.7477H43.5842C42.8778 96.7477 42.5018 96.9918 42.4562 97.4801L42.4514 97.5631C42.4514 97.7389 42.5132 97.8837 42.6369 97.9977C42.7606 98.1116 42.9299 98.1686 43.1447 98.1686ZM49.4728 97.69C49.4728 97.5175 49.3866 97.3824 49.2141 97.2848C49.0448 97.1839 48.7713 97.0943 48.3937 97.0162C47.1372 96.7525 46.509 96.2187 46.509 95.4147C46.509 94.9459 46.7027 94.5553 47.09 94.2428C47.4807 93.927 47.9901 93.7691 48.6184 93.7691C49.2889 93.7691 49.8244 93.927 50.2248 94.2428C50.6284 94.5585 50.8303 94.9687 50.8303 95.4733H49.4191C49.4191 95.2714 49.354 95.1054 49.2238 94.9752C49.0936 94.8417 48.8902 94.775 48.6135 94.775C48.3758 94.775 48.1919 94.8287 48.0617 94.9361C47.9315 95.0436 47.8664 95.1803 47.8664 95.3463C47.8664 95.5025 47.9396 95.6295 48.0861 95.7272C48.2359 95.8216 48.4865 95.9046 48.8381 95.9762C49.1896 96.0445 49.4859 96.1227 49.7268 96.2106C50.4722 96.484 50.8449 96.9576 50.8449 97.6315C50.8449 98.1132 50.6382 98.5039 50.2248 98.8033C49.8114 99.0996 49.2775 99.2477 48.6232 99.2477C48.1805 99.2477 47.7866 99.1695 47.4416 99.0133C47.0998 98.8538 46.8312 98.6373 46.6359 98.3639C46.4406 98.0872 46.343 97.7893 46.343 97.4703H47.6809C47.6939 97.721 47.7866 97.913 47.9592 98.0465C48.1317 98.18 48.3628 98.2467 48.6525 98.2467C48.9227 98.2467 49.1262 98.1962 49.2629 98.0953C49.4029 97.9912 49.4728 97.8561 49.4728 97.69ZM53.135 94.443C53.5093 93.9938 53.9797 93.7691 54.5461 93.7691C55.6919 93.7691 56.273 94.4348 56.2893 95.7662V99.15H54.8781V95.8053C54.8781 95.5025 54.813 95.2796 54.6828 95.1363C54.5526 94.9899 54.3361 94.9166 54.0334 94.9166C53.62 94.9166 53.3205 95.0761 53.135 95.3951V99.15H51.7238V91.65H53.135V94.443ZM58.843 99.15H57.4269V93.8668H58.843V99.15ZM57.3439 92.4996C57.3439 92.288 57.4139 92.1139 57.5539 91.9772C57.6971 91.8404 57.8908 91.7721 58.135 91.7721C58.3758 91.7721 58.5679 91.8404 58.7111 91.9772C58.8544 92.1139 58.926 92.288 58.926 92.4996C58.926 92.7145 58.8527 92.8902 58.7062 93.027C58.563 93.1637 58.3726 93.232 58.135 93.232C57.8973 93.232 57.7053 93.1637 57.5588 93.027C57.4156 92.8902 57.3439 92.7145 57.3439 92.4996ZM61.3088 93.8668L61.3527 94.4772C61.7303 94.0052 62.2365 93.7691 62.8713 93.7691C63.4312 93.7691 63.8478 93.9335 64.1213 94.2623C64.3947 94.5911 64.5347 95.0826 64.5412 95.7369V99.15H63.1301V95.7711C63.1301 95.4716 63.065 95.2552 62.9348 95.1217C62.8046 94.985 62.5881 94.9166 62.2853 94.9166C61.8882 94.9166 61.5904 95.0859 61.3918 95.4244V99.15H59.9807V93.8668H61.3088ZM65.4103 96.4693C65.4103 95.6588 65.6024 95.0061 65.9865 94.5113C66.3739 94.0165 66.8947 93.7691 67.549 93.7691C68.1284 93.7691 68.5793 93.9677 68.9016 94.3649L68.9601 93.8668H70.2394V98.9742C70.2394 99.4365 70.1337 99.8385 69.9221 100.18C69.7137 100.522 69.4191 100.782 69.0383 100.962C68.6574 101.141 68.2115 101.23 67.7004 101.23C67.313 101.23 66.9354 101.152 66.5676 100.996C66.1997 100.843 65.9214 100.644 65.7326 100.4L66.3576 99.5406C66.7092 99.9345 67.1356 100.131 67.6369 100.131C68.0113 100.131 68.3026 100.031 68.5109 99.8287C68.7193 99.6302 68.8234 99.3469 68.8234 98.9791V98.6959C68.4979 99.0637 68.0699 99.2477 67.5393 99.2477C66.9045 99.2477 66.3902 99.0003 65.9963 98.5055C65.6057 98.0074 65.4103 97.3483 65.4103 96.5279V96.4693ZM66.8215 96.5719C66.8215 97.0504 66.9175 97.4264 67.1096 97.6998C67.3016 97.97 67.5653 98.1051 67.9006 98.1051C68.3303 98.1051 68.6379 97.944 68.8234 97.6217V95.4C68.6346 95.0777 68.3303 94.9166 67.9103 94.9166C67.5718 94.9166 67.3049 95.055 67.1096 95.3316C66.9175 95.6083 66.8215 96.0218 66.8215 96.5719ZM73.0178 92.568V93.8668H73.9211V94.902H73.0178V97.5387C73.0178 97.734 73.0552 97.874 73.1301 97.9586C73.2049 98.0432 73.3482 98.0856 73.5598 98.0856C73.716 98.0856 73.8544 98.0742 73.9748 98.0514V99.1207C73.6981 99.2053 73.4133 99.2477 73.1203 99.2477C72.1307 99.2477 71.6262 98.748 71.6066 97.7486V94.902H70.8351V93.8668H71.6066V92.568H73.0178ZM74.341 96.4596C74.341 95.9355 74.4419 95.4684 74.6437 95.0582C74.8456 94.6481 75.1353 94.3307 75.5129 94.1061C75.8937 93.8815 76.3348 93.7691 76.8361 93.7691C77.549 93.7691 78.1301 93.9872 78.5793 94.4234C79.0318 94.8596 79.284 95.4521 79.3361 96.2008L79.3459 96.5621C79.3459 97.3727 79.1197 98.0237 78.6672 98.5152C78.2147 99.0035 77.6076 99.2477 76.8459 99.2477C76.0842 99.2477 75.4754 99.0035 75.0197 98.5152C74.5672 98.027 74.341 97.3629 74.341 96.5231V96.4596ZM75.7521 96.5621C75.7521 97.0634 75.8465 97.4475 76.0353 97.7145C76.2241 97.9781 76.4943 98.11 76.8459 98.11C77.1877 98.11 77.4546 97.9798 77.6467 97.7193C77.8387 97.4557 77.9348 97.0358 77.9348 96.4596C77.9348 95.968 77.8387 95.5872 77.6467 95.317C77.4546 95.0468 77.1844 94.9117 76.8361 94.9117C76.4911 94.9117 76.2241 95.0468 76.0353 95.317C75.8465 95.5839 75.7521 95.999 75.7521 96.5621ZM81.5139 93.8668L81.5578 94.4772C81.9354 94.0052 82.4416 93.7691 83.0764 93.7691C83.6363 93.7691 84.0529 93.9335 84.3264 94.2623C84.5998 94.5911 84.7398 95.0826 84.7463 95.7369V99.15H83.3351V95.7711C83.3351 95.4716 83.27 95.2552 83.1398 95.1217C83.0096 94.985 82.7932 94.9166 82.4904 94.9166C82.0933 94.9166 81.7954 95.0859 81.5969 95.4244V99.15H80.1857V93.8668H81.5139ZM92.09 97.2848C92.09 97.0081 91.9924 96.7965 91.7971 96.65C91.6018 96.5003 91.2502 96.344 90.7424 96.1813C90.2346 96.0152 89.8325 95.8525 89.5363 95.693C88.729 95.2568 88.3254 94.6692 88.3254 93.9303C88.3254 93.5462 88.4328 93.2044 88.6476 92.9049C88.8657 92.6022 89.1766 92.3662 89.5803 92.1969C89.9872 92.0276 90.4429 91.943 90.9475 91.943C91.4553 91.943 91.9077 92.0358 92.3049 92.2213C92.702 92.4036 93.0096 92.6624 93.2277 92.9977C93.4491 93.333 93.5598 93.7138 93.5598 94.1402H92.0949C92.0949 93.8147 91.9924 93.5624 91.7873 93.3834C91.5822 93.2011 91.2941 93.11 90.923 93.11C90.565 93.11 90.2866 93.1865 90.0881 93.3395C89.8895 93.4892 89.7902 93.6878 89.7902 93.9352C89.7902 94.1663 89.9058 94.36 90.1369 94.5162C90.3713 94.6725 90.7147 94.819 91.1672 94.9557C92.0005 95.2063 92.6076 95.5172 92.9885 95.8883C93.3693 96.2594 93.5598 96.7216 93.5598 97.275C93.5598 97.8902 93.327 98.3736 92.8615 98.7252C92.396 99.0735 91.7694 99.2477 90.9816 99.2477C90.4348 99.2477 89.9367 99.1484 89.4875 98.9498C89.0383 98.748 88.6949 98.4729 88.4572 98.1246C88.2228 97.7763 88.1057 97.3727 88.1057 96.9137H89.5754C89.5754 97.6982 90.0441 98.0904 90.9816 98.0904C91.3299 98.0904 91.6018 98.0205 91.7971 97.8805C91.9924 97.7372 92.09 97.5387 92.09 97.2848ZM96.1525 92.568V93.8668H97.0559V94.902H96.1525V97.5387C96.1525 97.734 96.19 97.874 96.2648 97.9586C96.3397 98.0432 96.4829 98.0856 96.6945 98.0856C96.8508 98.0856 96.9891 98.0742 97.1096 98.0514V99.1207C96.8329 99.2053 96.548 99.2477 96.2551 99.2477C95.2655 99.2477 94.7609 98.748 94.7414 97.7486V94.902H93.9699V93.8668H94.7414V92.568H96.1525Z" fill="black" fill-opacity="0.8"/>
<path d="M179.94 96.069H177.127V97.9733H180.428V99.15H175.662V92.0406H180.418V93.2272H177.127V94.9215H179.94V96.069ZM189.315 97.0992L190.272 92.0406H191.732L190.155 99.15H188.68L187.523 94.3941L186.366 99.15H184.891L183.314 92.0406H184.774L185.736 97.0895L186.908 92.0406H188.148L189.315 97.0992ZM195.33 99.15C195.265 99.0231 195.218 98.8652 195.189 98.6764C194.847 99.0572 194.403 99.2477 193.856 99.2477C193.338 99.2477 192.908 99.0979 192.567 98.7984C192.228 98.499 192.059 98.1214 192.059 97.6656C192.059 97.1057 192.266 96.6761 192.679 96.3766C193.096 96.0771 193.696 95.9257 194.481 95.9225H195.13V95.6197C195.13 95.3756 195.067 95.1803 194.94 95.0338C194.816 94.8873 194.619 94.8141 194.349 94.8141C194.111 94.8141 193.924 94.871 193.787 94.985C193.654 95.0989 193.587 95.2552 193.587 95.4537H192.176C192.176 95.1477 192.27 94.8645 192.459 94.6041C192.648 94.3437 192.915 94.1402 193.26 93.9938C193.605 93.844 193.992 93.7691 194.422 93.7691C195.073 93.7691 195.589 93.9335 195.97 94.2623C196.354 94.5878 196.546 95.0468 196.546 95.6393V97.9293C196.549 98.4306 196.619 98.8098 196.756 99.067V99.15H195.33ZM194.163 98.1686C194.372 98.1686 194.564 98.123 194.74 98.0318C194.915 97.9374 195.046 97.8121 195.13 97.6559V96.7477H194.603C193.896 96.7477 193.52 96.9918 193.475 97.4801L193.47 97.5631C193.47 97.7389 193.532 97.8837 193.656 97.9977C193.779 98.1116 193.949 98.1686 194.163 98.1686ZM200.491 97.69C200.491 97.5175 200.405 97.3824 200.233 97.2848C200.063 97.1839 199.79 97.0943 199.412 97.0162C198.156 96.7525 197.528 96.2187 197.528 95.4147C197.528 94.9459 197.721 94.5553 198.109 94.2428C198.499 93.927 199.009 93.7691 199.637 93.7691C200.308 93.7691 200.843 93.927 201.243 94.2428C201.647 94.5585 201.849 94.9687 201.849 95.4733H200.438C200.438 95.2714 200.373 95.1054 200.242 94.9752C200.112 94.8417 199.909 94.775 199.632 94.775C199.394 94.775 199.211 94.8287 199.08 94.9361C198.95 95.0436 198.885 95.1803 198.885 95.3463C198.885 95.5025 198.958 95.6295 199.105 95.7272C199.255 95.8216 199.505 95.9046 199.857 95.9762C200.208 96.0445 200.505 96.1227 200.745 96.2106C201.491 96.484 201.864 96.9576 201.864 97.6315C201.864 98.1132 201.657 98.5039 201.243 98.8033C200.83 99.0996 200.296 99.2477 199.642 99.2477C199.199 99.2477 198.805 99.1695 198.46 99.0133C198.118 98.8538 197.85 98.6373 197.655 98.3639C197.459 98.0872 197.362 97.7893 197.362 97.4703H198.699C198.713 97.721 198.805 97.913 198.978 98.0465C199.15 98.18 199.381 98.2467 199.671 98.2467C199.941 98.2467 200.145 98.1962 200.282 98.0953C200.421 97.9912 200.491 97.8561 200.491 97.69ZM204.154 94.443C204.528 93.9938 204.998 93.7691 205.565 93.7691C206.711 93.7691 207.292 94.4348 207.308 95.7662V99.15H205.897V95.8053C205.897 95.5025 205.832 95.2796 205.701 95.1363C205.571 94.9899 205.355 94.9166 205.052 94.9166C204.639 94.9166 204.339 95.0761 204.154 95.3951V99.15H202.742V91.65H204.154V94.443ZM209.862 99.15H208.446V93.8668H209.862V99.15ZM208.363 92.4996C208.363 92.288 208.433 92.1139 208.573 91.9772C208.716 91.8404 208.909 91.7721 209.154 91.7721C209.394 91.7721 209.587 91.8404 209.73 91.9772C209.873 92.1139 209.945 92.288 209.945 92.4996C209.945 92.7145 209.871 92.8902 209.725 93.027C209.582 93.1637 209.391 93.232 209.154 93.232C208.916 93.232 208.724 93.1637 208.577 93.027C208.434 92.8902 208.363 92.7145 208.363 92.4996ZM212.327 93.8668L212.371 94.4772C212.749 94.0052 213.255 93.7691 213.89 93.7691C214.45 93.7691 214.866 93.9335 215.14 94.2623C215.413 94.5911 215.553 95.0826 215.56 95.7369V99.15H214.149V95.7711C214.149 95.4716 214.084 95.2552 213.953 95.1217C213.823 94.985 213.607 94.9166 213.304 94.9166C212.907 94.9166 212.609 95.0859 212.41 95.4244V99.15H210.999V93.8668H212.327ZM216.429 96.4693C216.429 95.6588 216.621 95.0061 217.005 94.5113C217.393 94.0165 217.913 93.7691 218.568 93.7691C219.147 93.7691 219.598 93.9677 219.92 94.3649L219.979 93.8668H221.258V98.9742C221.258 99.4365 221.152 99.8385 220.941 100.18C220.732 100.522 220.438 100.782 220.057 100.962C219.676 101.141 219.23 101.23 218.719 101.23C218.332 101.23 217.954 101.152 217.586 100.996C217.218 100.843 216.94 100.644 216.751 100.4L217.376 99.5406C217.728 99.9345 218.154 100.131 218.656 100.131C219.03 100.131 219.321 100.031 219.53 99.8287C219.738 99.6302 219.842 99.3469 219.842 98.9791V98.6959C219.517 99.0637 219.088 99.2477 218.558 99.2477C217.923 99.2477 217.409 99.0003 217.015 98.5055C216.624 98.0074 216.429 97.3483 216.429 96.5279V96.4693ZM217.84 96.5719C217.84 97.0504 217.936 97.4264 218.128 97.6998C218.32 97.97 218.584 98.1051 218.919 98.1051C219.349 98.1051 219.657 97.944 219.842 97.6217V95.4C219.653 95.0777 219.349 94.9166 218.929 94.9166C218.59 94.9166 218.324 95.055 218.128 95.3316C217.936 95.6083 217.84 96.0218 217.84 96.5719ZM224.036 92.568V93.8668H224.94V94.902H224.036V97.5387C224.036 97.734 224.074 97.874 224.149 97.9586C224.224 98.0432 224.367 98.0856 224.578 98.0856C224.735 98.0856 224.873 98.0742 224.993 98.0514V99.1207C224.717 99.2053 224.432 99.2477 224.139 99.2477C223.149 99.2477 222.645 98.748 222.625 97.7486V94.902H221.854V93.8668H222.625V92.568H224.036ZM225.36 96.4596C225.36 95.9355 225.461 95.4684 225.662 95.0582C225.864 94.6481 226.154 94.3307 226.532 94.1061C226.912 93.8815 227.353 93.7691 227.855 93.7691C228.568 93.7691 229.149 93.9872 229.598 94.4234C230.05 94.8596 230.303 95.4521 230.355 96.2008L230.365 96.5621C230.365 97.3727 230.138 98.0237 229.686 98.5152C229.233 99.0035 228.626 99.2477 227.865 99.2477C227.103 99.2477 226.494 99.0035 226.038 98.5152C225.586 98.027 225.36 97.3629 225.36 96.5231V96.4596ZM226.771 96.5621C226.771 97.0634 226.865 97.4475 227.054 97.7145C227.243 97.9781 227.513 98.11 227.865 98.11C228.206 98.11 228.473 97.9798 228.665 97.7193C228.857 97.4557 228.953 97.0358 228.953 96.4596C228.953 95.968 228.857 95.5872 228.665 95.317C228.473 95.0468 228.203 94.9117 227.855 94.9117C227.51 94.9117 227.243 95.0468 227.054 95.317C226.865 95.5839 226.771 95.999 226.771 96.5621ZM232.533 93.8668L232.576 94.4772C232.954 94.0052 233.46 93.7691 234.095 93.7691C234.655 93.7691 235.072 93.9335 235.345 94.2623C235.618 94.5911 235.758 95.0826 235.765 95.7369V99.15H234.354V95.7711C234.354 95.4716 234.289 95.2552 234.158 95.1217C234.028 94.985 233.812 94.9166 233.509 94.9166C233.112 94.9166 232.814 95.0859 232.616 95.4244V99.15H231.204V93.8668H232.533ZM243.109 97.2848C243.109 97.0081 243.011 96.7965 242.816 96.65C242.62 96.5003 242.269 96.344 241.761 96.1813C241.253 96.0152 240.851 95.8525 240.555 95.693C239.748 95.2568 239.344 94.6692 239.344 93.9303C239.344 93.5462 239.451 93.2044 239.666 92.9049C239.884 92.6022 240.195 92.3662 240.599 92.1969C241.006 92.0276 241.462 91.943 241.966 91.943C242.474 91.943 242.926 92.0358 243.324 92.2213C243.721 92.4036 244.028 92.6624 244.246 92.9977C244.468 93.333 244.578 93.7138 244.578 94.1402H243.114C243.114 93.8147 243.011 93.5624 242.806 93.3834C242.601 93.2011 242.313 93.11 241.942 93.11C241.584 93.11 241.305 93.1865 241.107 93.3395C240.908 93.4892 240.809 93.6878 240.809 93.9352C240.809 94.1663 240.924 94.36 241.156 94.5162C241.39 94.6725 241.733 94.819 242.186 94.9557C243.019 95.2063 243.626 95.5172 244.007 95.8883C244.388 96.2594 244.578 96.7216 244.578 97.275C244.578 97.8902 244.346 98.3736 243.88 98.7252C243.415 99.0735 242.788 99.2477 242 99.2477C241.453 99.2477 240.955 99.1484 240.506 98.9498C240.057 98.748 239.713 98.4729 239.476 98.1246C239.241 97.7763 239.124 97.3727 239.124 96.9137H240.594C240.594 97.6982 241.063 98.0904 242 98.0904C242.349 98.0904 242.62 98.0205 242.816 97.8805C243.011 97.7372 243.109 97.5387 243.109 97.2848ZM247.171 92.568V93.8668H248.074V94.902H247.171V97.5387C247.171 97.734 247.209 97.874 247.283 97.9586C247.358 98.0432 247.502 98.0856 247.713 98.0856C247.869 98.0856 248.008 98.0742 248.128 98.0514V99.1207C247.852 99.2053 247.567 99.2477 247.274 99.2477C246.284 99.2477 245.78 98.748 245.76 97.7486V94.902H244.989V93.8668H245.76V92.568H247.171Z" fill="black" fill-opacity="0.8"/>
<path d="M156.083 51.8285L156.083 50.3637L160.761 47.5121L156.083 47.5121L156.083 46.0473L163.192 46.0473L163.192 47.5121L158.505 50.3686L163.192 50.3686L163.192 51.8285L156.083 51.8285ZM157.948 59.2846C158.225 59.2846 158.436 59.1869 158.583 58.9916C158.733 58.7963 158.889 58.4447 159.052 57.9369C159.218 57.4291 159.38 57.0271 159.54 56.7309C159.976 55.9236 160.564 55.5199 161.303 55.5199C161.687 55.5199 162.029 55.6273 162.328 55.8422C162.631 56.0603 162.867 56.3712 163.036 56.7748C163.205 57.1817 163.29 57.6374 163.29 58.142C163.29 58.6498 163.197 59.1023 163.012 59.4994C162.829 59.8965 162.57 60.2042 162.235 60.4223C161.9 60.6436 161.519 60.7543 161.093 60.7543L161.093 59.2895C161.418 59.2895 161.67 59.1869 161.849 58.9818C162.032 58.7768 162.123 58.4887 162.123 58.1176C162.123 57.7595 162.046 57.4812 161.893 57.2826C161.744 57.084 161.545 56.9848 161.298 56.9848C161.067 56.9848 160.873 57.1003 160.717 57.3314C160.56 57.5658 160.414 57.9092 160.277 58.3617C160.027 59.1951 159.716 59.8021 159.345 60.183C158.973 60.5639 158.511 60.7543 157.958 60.7543C157.343 60.7543 156.859 60.5215 156.508 60.0561C156.159 59.5906 155.985 58.9639 155.985 58.1762C155.985 57.6293 156.084 57.1312 156.283 56.682C156.485 56.2328 156.76 55.8894 157.108 55.6518C157.457 55.4174 157.86 55.3002 158.319 55.3002L158.319 56.7699C157.535 56.7699 157.142 57.2387 157.142 58.1762C157.142 58.5245 157.212 58.7963 157.352 58.9916C157.496 59.1869 157.694 59.2846 157.948 59.2846ZM162.665 63.3471L161.366 63.3471L161.366 64.2504L160.331 64.2504L160.331 63.3471L157.694 63.3471C157.499 63.3471 157.359 63.3845 157.274 63.4594C157.19 63.5342 157.147 63.6775 157.147 63.8891C157.147 64.0453 157.159 64.1837 157.182 64.3041L156.112 64.3041C156.028 64.0274 155.985 63.7426 155.985 63.4496C155.985 62.46 156.485 61.9555 157.484 61.9359L160.331 61.9359L160.331 61.1645L161.366 61.1645L161.366 61.9359L162.665 61.9359L162.665 63.3471ZM156.083 68.098C156.21 68.0329 156.368 67.9857 156.557 67.9564C156.176 67.6146 155.985 67.1703 155.985 66.6234C155.985 66.1059 156.135 65.6762 156.434 65.3344C156.734 64.9958 157.112 64.8266 157.567 64.8266C158.127 64.8266 158.557 65.0333 158.856 65.4467C159.156 65.8633 159.307 66.4639 159.31 67.2484L159.31 67.8978L159.613 67.8978C159.857 67.8978 160.053 67.8344 160.199 67.7074C160.346 67.5837 160.419 67.3868 160.419 67.1166C160.419 66.879 160.362 66.6918 160.248 66.5551C160.134 66.4216 159.978 66.3549 159.779 66.3549L159.779 64.9437C160.085 64.9437 160.368 65.0381 160.629 65.227C160.889 65.4158 161.093 65.6827 161.239 66.0277C161.389 66.3728 161.464 66.7602 161.464 67.1898C161.464 67.8409 161.299 68.3568 160.971 68.7377C160.645 69.1218 160.186 69.3139 159.594 69.3139L157.304 69.3139C156.802 69.3171 156.423 69.3871 156.166 69.5238L156.083 69.5238L156.083 68.098ZM157.064 66.9311C157.064 67.1394 157.11 67.3314 157.201 67.5072C157.295 67.683 157.421 67.8132 157.577 67.8978L158.485 67.8978L158.485 67.3705C158.485 66.6641 158.241 66.2881 157.753 66.2426L157.67 66.2377C157.494 66.2377 157.349 66.2995 157.235 66.4232C157.121 66.5469 157.064 66.7162 157.064 66.9311ZM162.665 72.0873L161.366 72.0873L161.366 72.9906L160.331 72.9906L160.331 72.0873L157.694 72.0873C157.499 72.0873 157.359 72.1247 157.274 72.1996C157.19 72.2745 157.147 72.4177 157.147 72.6293C157.147 72.7855 157.159 72.9239 157.182 73.0443L156.112 73.0443C156.028 72.7676 155.985 72.4828 155.985 72.1898C155.985 71.2003 156.485 70.6957 157.484 70.6762L160.331 70.6762L160.331 69.9047L161.366 69.9047L161.366 70.6762L162.665 70.6762L162.665 72.0873ZM155.985 76.2084C155.985 75.4337 156.223 74.8021 156.698 74.3139C157.173 73.8288 157.807 73.5863 158.598 73.5863L158.734 73.5863C159.265 73.5863 159.738 73.6889 160.155 73.8939C160.575 74.099 160.897 74.3887 161.122 74.7631C161.35 75.1407 161.464 75.5704 161.464 76.0521C161.464 76.7748 161.236 77.3428 160.78 77.7562C160.324 78.1729 159.678 78.3812 158.842 78.3812L158.265 78.3812L158.265 75.017C157.92 75.0626 157.644 75.1993 157.435 75.4271C157.227 75.6583 157.123 75.9496 157.123 76.3012C157.123 76.8448 157.32 77.2696 157.714 77.5756L156.937 78.2689C156.638 78.0574 156.404 77.7709 156.234 77.4096C156.068 77.0482 155.985 76.6478 155.985 76.2084ZM160.321 76.0473C160.321 75.7673 160.227 75.5395 160.038 75.3637C159.849 75.1911 159.579 75.0805 159.227 75.0316L159.227 76.9945L159.34 76.9945C159.652 76.988 159.893 76.9034 160.062 76.7406C160.235 76.5779 160.321 76.3467 160.321 76.0473ZM157.948 85.4564C158.225 85.4564 158.436 85.3588 158.583 85.1635C158.733 84.9682 158.889 84.6166 159.052 84.1088C159.218 83.601 159.38 83.199 159.54 82.9027C159.976 82.0954 160.564 81.6918 161.303 81.6918C161.687 81.6918 162.029 81.7992 162.328 82.0141C162.631 82.2322 162.867 82.543 163.036 82.9467C163.205 83.3536 163.29 83.8093 163.29 84.3139C163.29 84.8217 163.197 85.2742 163.012 85.6713C162.829 86.0684 162.57 86.376 162.235 86.5941C161.9 86.8155 161.519 86.9262 161.093 86.9262L161.093 85.4613C161.418 85.4613 161.67 85.3588 161.849 85.1537C162.032 84.9486 162.123 84.6605 162.123 84.2895C162.123 83.9314 162.046 83.6531 161.893 83.4545C161.744 83.2559 161.545 83.1566 161.298 83.1566C161.067 83.1566 160.873 83.2722 160.717 83.5033C160.56 83.7377 160.414 84.0811 160.277 84.5336C160.027 85.3669 159.716 85.974 159.345 86.3549C158.973 86.7357 158.511 86.9262 157.958 86.9262C157.343 86.9262 156.859 86.6934 156.508 86.2279C156.159 85.7624 155.985 85.1358 155.985 84.348C155.985 83.8012 156.084 83.3031 156.283 82.8539C156.485 82.4047 156.76 82.0613 157.108 81.8236C157.457 81.5893 157.86 81.4721 158.319 81.4721L158.319 82.9418C157.535 82.9418 157.142 83.4105 157.142 84.348C157.142 84.6964 157.212 84.9682 157.352 85.1635C157.496 85.3588 157.694 85.4564 157.948 85.4564ZM162.665 89.5189L161.366 89.5189L161.366 90.4223L160.331 90.4223L160.331 89.5189L157.694 89.5189C157.499 89.5189 157.359 89.5564 157.274 89.6312C157.19 89.7061 157.147 89.8493 157.147 90.0609C157.147 90.2172 157.159 90.3555 157.181 90.476L156.112 90.476C156.028 90.1993 155.985 89.9145 155.985 89.6215C155.985 88.6319 156.485 88.1273 157.484 88.1078L160.331 88.1078L160.331 87.3363L161.366 87.3363L161.366 88.1078L162.665 88.1078L162.665 89.5189Z" fill="black" fill-opacity="0.8"/>
<path d="M156.083 131.841L156.083 130.376L160.761 127.525L156.083 127.525L156.083 126.06L163.192 126.06L163.192 127.525L158.505 130.381L163.192 130.381L163.192 131.841L156.083 131.841ZM157.948 139.297C158.225 139.297 158.436 139.199 158.583 139.004C158.733 138.809 158.889 138.457 159.052 137.949C159.218 137.442 159.38 137.04 159.54 136.743C159.976 135.936 160.564 135.532 161.303 135.532C161.687 135.532 162.029 135.64 162.328 135.855C162.631 136.073 162.867 136.384 163.036 136.787C163.205 137.194 163.29 137.65 163.29 138.154C163.29 138.662 163.197 139.115 163.012 139.512C162.829 139.909 162.57 140.217 162.235 140.435C161.9 140.656 161.519 140.767 161.093 140.767L161.093 139.302C161.418 139.302 161.67 139.199 161.849 138.994C162.032 138.789 162.123 138.501 162.123 138.13C162.123 137.772 162.046 137.494 161.893 137.295C161.744 137.097 161.545 136.997 161.298 136.997C161.067 136.997 160.873 137.113 160.717 137.344C160.56 137.578 160.414 137.922 160.277 138.374C160.027 139.208 159.716 139.815 159.345 140.196C158.973 140.576 158.511 140.767 157.958 140.767C157.343 140.767 156.859 140.534 156.508 140.069C156.159 139.603 155.985 138.976 155.985 138.189C155.985 137.642 156.084 137.144 156.283 136.695C156.485 136.245 156.76 135.902 157.108 135.664C157.457 135.43 157.86 135.313 158.319 135.313L158.319 136.782C157.535 136.782 157.142 137.251 157.142 138.189C157.142 138.537 157.212 138.809 157.352 139.004C157.496 139.199 157.694 139.297 157.948 139.297ZM162.665 143.36L161.366 143.36L161.366 144.263L160.331 144.263L160.331 143.36L157.694 143.36C157.499 143.36 157.359 143.397 157.274 143.472C157.19 143.547 157.147 143.69 157.147 143.902C157.147 144.058 157.159 144.196 157.182 144.317L156.112 144.317C156.028 144.04 155.985 143.755 155.985 143.462C155.985 142.473 156.485 141.968 157.484 141.948L160.331 141.948L160.331 141.177L161.366 141.177L161.366 141.948L162.665 141.948L162.665 143.36ZM156.083 148.111C156.21 148.045 156.368 147.998 156.557 147.969C156.176 147.627 155.985 147.183 155.985 146.636C155.985 146.118 156.135 145.689 156.434 145.347C156.734 145.008 157.112 144.839 157.567 144.839C158.127 144.839 158.557 145.046 158.856 145.459C159.156 145.876 159.307 146.476 159.31 147.261L159.31 147.91L159.613 147.91C159.857 147.91 160.053 147.847 160.199 147.72C160.346 147.596 160.419 147.399 160.419 147.129C160.419 146.891 160.362 146.704 160.248 146.568C160.134 146.434 159.978 146.367 159.779 146.367L159.779 144.956C160.085 144.956 160.368 145.051 160.629 145.239C160.889 145.428 161.093 145.695 161.239 146.04C161.389 146.385 161.464 146.773 161.464 147.202C161.464 147.853 161.299 148.369 160.971 148.75C160.645 149.134 160.186 149.326 159.594 149.326L157.304 149.326C156.802 149.33 156.423 149.4 156.166 149.536L156.083 149.536L156.083 148.111ZM157.064 146.944C157.064 147.152 157.11 147.344 157.201 147.52C157.295 147.696 157.421 147.826 157.577 147.91L158.485 147.91L158.485 147.383C158.485 146.677 158.241 146.301 157.753 146.255L157.67 146.25C157.494 146.25 157.349 146.312 157.235 146.436C157.121 146.559 157.064 146.729 157.064 146.944ZM162.665 152.1L161.366 152.1L161.366 153.003L160.331 153.003L160.331 152.1L157.694 152.1C157.499 152.1 157.359 152.137 157.274 152.212C157.19 152.287 157.147 152.43 157.147 152.642C157.147 152.798 157.159 152.936 157.182 153.057L156.112 153.057C156.028 152.78 155.985 152.495 155.985 152.202C155.985 151.213 156.485 150.708 157.484 150.689L160.331 150.689L160.331 149.917L161.366 149.917L161.366 150.689L162.665 150.689L162.665 152.1ZM155.985 156.221C155.985 155.446 156.223 154.815 156.698 154.326C157.173 153.841 157.807 153.599 158.598 153.599L158.734 153.599C159.265 153.599 159.738 153.701 160.155 153.906C160.575 154.112 160.897 154.401 161.122 154.776C161.35 155.153 161.464 155.583 161.464 156.065C161.464 156.787 161.236 157.355 160.78 157.769C160.324 158.185 159.678 158.394 158.842 158.394L158.265 158.394L158.265 155.029C157.92 155.075 157.644 155.212 157.435 155.44C157.227 155.671 157.123 155.962 157.123 156.314C157.123 156.857 157.32 157.282 157.714 157.588L156.937 158.281C156.638 158.07 156.404 157.783 156.234 157.422C156.068 157.061 155.985 156.66 155.985 156.221ZM160.321 156.06C160.321 155.78 160.227 155.552 160.038 155.376C159.849 155.204 159.579 155.093 159.227 155.044L159.227 157.007L159.34 157.007C159.652 157.001 159.893 156.916 160.062 156.753C160.235 156.59 160.321 156.359 160.321 156.06ZM157.948 165.469C158.225 165.469 158.436 165.371 158.583 165.176C158.733 164.981 158.889 164.629 159.052 164.121C159.218 163.613 159.38 163.211 159.54 162.915C159.976 162.108 160.564 161.704 161.303 161.704C161.687 161.704 162.029 161.812 162.328 162.027C162.631 162.245 162.867 162.556 163.036 162.959C163.205 163.366 163.29 163.822 163.29 164.326C163.29 164.834 163.197 165.287 163.012 165.684C162.829 166.081 162.57 166.389 162.235 166.607C161.9 166.828 161.519 166.939 161.093 166.939L161.093 165.474C161.418 165.474 161.67 165.371 161.849 165.166C162.032 164.961 162.123 164.673 162.123 164.302C162.123 163.944 162.046 163.666 161.893 163.467C161.744 163.268 161.545 163.169 161.298 163.169C161.067 163.169 160.873 163.285 160.717 163.516C160.56 163.75 160.414 164.094 160.277 164.546C160.027 165.379 159.716 165.987 159.345 166.367C158.973 166.748 158.511 166.939 157.958 166.939C157.343 166.939 156.859 166.706 156.508 166.24C156.159 165.775 155.985 165.148 155.985 164.361C155.985 163.814 156.084 163.316 156.283 162.866C156.485 162.417 156.76 162.074 157.108 161.836C157.457 161.602 157.86 161.485 158.319 161.485L158.319 162.954C157.535 162.954 157.142 163.423 157.142 164.361C157.142 164.709 157.212 164.981 157.352 165.176C157.496 165.371 157.694 165.469 157.948 165.469ZM162.665 169.531L161.366 169.531L161.366 170.435L160.331 170.435L160.331 169.531L157.694 169.531C157.499 169.531 157.359 169.569 157.274 169.644C157.19 169.719 157.147 169.862 157.147 170.073C157.147 170.23 157.159 170.368 157.181 170.488L156.112 170.488C156.028 170.212 155.985 169.927 155.985 169.634C155.985 168.644 156.485 168.14 157.484 168.12L160.331 168.12L160.331 167.349L161.366 167.349L161.366 168.12L162.665 168.12L162.665 169.531Z" fill="black" fill-opacity="0.8"/>
<path d="M342.045 96.069H339.232V97.9733H342.533V99.15H337.767V92.0406H342.523V93.2272H339.232V94.9215H342.045V96.069ZM351.42 97.0992L352.377 92.0406H353.837L352.26 99.15H350.785L349.628 94.3941L348.47 99.15H346.996L345.419 92.0406H346.879L347.841 97.0895L349.012 92.0406H350.253L351.42 97.0992ZM357.435 99.15C357.37 99.0231 357.323 98.8652 357.294 98.6764C356.952 99.0572 356.508 99.2477 355.961 99.2477C355.443 99.2477 355.013 99.0979 354.672 98.7984C354.333 98.499 354.164 98.1214 354.164 97.6656C354.164 97.1057 354.371 96.6761 354.784 96.3766C355.201 96.0771 355.801 95.9257 356.586 95.9225H357.235V95.6197C357.235 95.3756 357.172 95.1803 357.045 95.0338C356.921 94.8873 356.724 94.8141 356.454 94.8141C356.216 94.8141 356.029 94.871 355.892 94.985C355.759 95.0989 355.692 95.2552 355.692 95.4537H354.281C354.281 95.1477 354.375 94.8645 354.564 94.6041C354.753 94.3437 355.02 94.1402 355.365 93.9938C355.71 93.844 356.097 93.7691 356.527 93.7691C357.178 93.7691 357.694 93.9335 358.075 94.2623C358.459 94.5878 358.651 95.0468 358.651 95.6393V97.9293C358.654 98.4306 358.724 98.8098 358.861 99.067V99.15H357.435ZM356.268 98.1686C356.477 98.1686 356.669 98.123 356.845 98.0318C357.02 97.9374 357.151 97.8121 357.235 97.6559V96.7477H356.708C356.001 96.7477 355.625 96.9918 355.58 97.4801L355.575 97.5631C355.575 97.7389 355.637 97.8837 355.761 97.9977C355.884 98.1116 356.053 98.1686 356.268 98.1686Z" fill="black" fill-opacity="0.8"/>
<circle cx="149" cy="40.8587" r="9.5" fill="#FAFAFA" stroke="black"/>
<path d="M153.218 36.3022L153.218 36.3022L153.219 36.3127L153.718 40.0615V44.9002H153.372H152.872V45.4002V46.0121C152.872 46.229 152.815 46.3219 152.777 46.3604C152.741 46.3974 152.655 46.4534 152.45 46.4534C152.244 46.4534 152.158 46.3973 152.121 46.3601C152.083 46.3215 152.026 46.2287 152.026 46.0121V45.4002V44.9002H151.526H146.474H145.974V45.4002V46.0121C145.974 46.2287 145.917 46.3215 145.879 46.3601C145.842 46.3973 145.756 46.4534 145.55 46.4534C145.345 46.4534 145.259 46.3974 145.223 46.3604C145.185 46.3218 145.128 46.2289 145.128 46.0121V45.4002V44.9002H144.628H144.283L144.284 40.0354L144.763 36.3096C144.808 35.9842 145.065 35.6286 145.804 35.323C146.708 34.953 147.78 34.7587 149 34.7587C150.22 34.7587 151.293 34.9533 152.196 35.323C152.937 35.6294 153.182 35.9837 153.218 36.3022ZM144.962 36.8937L144.962 36.8937L144.96 36.905L144.549 39.9601L144.544 39.998L144.545 40.0363C144.546 40.1124 144.552 40.3455 144.74 40.526C144.921 40.699 145.149 40.709 145.259 40.709H152.742C152.852 40.709 153.079 40.6986 153.259 40.5272C153.447 40.348 153.455 40.1163 153.457 40.0383L153.458 39.9907L153.45 39.9439L153.436 39.8653L153.041 36.9019L153.041 36.9019L153.039 36.8909C153.028 36.8157 152.993 36.6259 152.827 36.4783C152.661 36.3304 152.463 36.3125 152.346 36.3125H150.879V35.5175V35.0175H150.379H147.623H147.123V35.5175V36.3125H145.655C145.539 36.3125 145.338 36.3299 145.171 36.4817C145.006 36.6307 144.973 36.8218 144.962 36.8937ZM147.351 42.7576V42.7572C147.351 41.9371 146.686 41.2737 145.867 41.2737C145.049 41.2737 144.382 41.9368 144.382 42.7572C144.382 43.5782 145.048 44.2415 145.867 44.2415C146.686 44.2415 147.35 43.5778 147.351 42.7576ZM153.619 42.7576V42.7572C153.619 41.9375 152.955 41.2737 152.135 41.2737C151.317 41.2737 150.651 41.9368 150.651 42.7572C150.651 43.5783 151.317 44.2415 152.135 44.2415C152.956 44.2415 153.619 43.5772 153.619 42.7576Z" fill="#155265" stroke="black"/>
<path d="M234.5 106C233.635 106 232.93 106.722 232.93 107.61C232.93 108.497 233.635 109.213 234.5 109.213C235.365 109.213 236.07 108.497 236.07 107.61C236.07 106.722 235.365 106 234.5 106ZM232.615 109.477C231.583 109.602 231 110.628 231 111.588V116.549C231 117.477 232.253 117.462 232.255 116.536C232.255 114.952 232.248 113.707 232.248 112.056C232.248 111.949 232.331 111.865 232.435 111.865C232.539 111.865 232.621 111.949 232.621 112.056C232.638 116.119 232.615 119.962 232.615 124.136C232.615 124.614 232.99 125 233.458 125C233.926 125 234.305 124.616 234.307 124.136C234.307 121.808 234.307 119.209 234.307 117.064C234.307 116.957 234.389 116.872 234.494 116.872C234.598 116.872 234.68 116.957 234.68 117.064C234.68 119.461 234.68 121.835 234.68 124.136C234.68 124.614 235.061 125 235.529 125C235.997 125 236.372 124.616 236.372 124.136C236.376 119.618 236.372 116.373 236.372 112.056C236.372 111.949 236.455 111.865 236.559 111.865C236.663 111.865 236.752 111.949 236.752 112.056C236.754 113.611 236.745 115.086 236.745 116.536C236.745 117.464 238 117.479 238 116.549V111.588C238 110.561 237.337 109.477 236.166 109.477H232.615Z" fill="#248FB2"/>
</svg>
