<svg width="100" height="100" viewBox="0 0 100 100" fill="none" xmlns="http://www.w3.org/2000/svg">
<circle cx="50" cy="50" r="48" fill="#FAFAFA" stroke="black" stroke-width="4"/>
<path d="M71.585 27.162L71.5873 27.1832L71.5902 27.2044L74.0891 45.9809V70.7074H71.8619H69.8619V72.7074V75.7669C69.8619 76.9384 69.5501 77.5452 69.2429 77.8586C68.9419 78.1658 68.3688 78.4734 67.2488 78.4734C66.1274 78.4734 65.5523 78.1656 65.2499 77.8575C64.9418 77.5437 64.6298 76.9371 64.6298 75.7669V72.7074V70.7074H62.6298H37.3702H35.3702V72.7074V75.7669C35.3702 76.9371 35.0581 77.5437 34.7501 77.8575C34.4477 78.1656 33.8725 78.4734 32.7511 78.4734C31.6324 78.4734 31.0591 78.166 30.7575 77.8584C30.45 77.5447 30.138 76.9378 30.138 75.7669V72.7074V70.7074H28.138H25.9134L25.9208 45.8513L28.3185 27.189C28.5763 25.3063 30.0597 23.4188 33.8287 21.8594C38.4188 19.9797 43.8491 19.0002 50.002 19.0002C56.1545 19.0002 61.5831 19.9816 66.1697 21.8596C69.9501 23.4226 71.3782 25.3063 71.585 27.162ZM30.3021 30.253L30.2986 30.2756L30.2955 30.2983L28.2406 45.5738L28.2202 45.7255L28.2231 45.8784C28.2301 46.246 28.263 47.2239 29.0472 47.9756C29.8003 48.6974 30.7676 48.7515 31.293 48.7515H68.7109C69.2384 48.7515 70.1994 48.6958 70.9508 47.9803C71.7348 47.2337 71.7743 46.2618 71.7826 45.8869L71.7869 45.6968L71.7552 45.5092L71.6874 45.1078L69.7087 30.2825L69.7057 30.2603L69.7023 30.2383C69.6473 29.8864 69.4968 29.0885 68.803 28.4721C68.1077 27.8543 67.2714 27.7692 66.7276 27.7692H58.8947V23.2942V21.2942H56.8947H43.1132H41.1132V23.2942V27.7692H33.2763C32.737 27.7692 31.8891 27.8519 31.1887 28.4858C30.501 29.1083 30.3559 29.9127 30.3021 30.253ZM41.254 59.4942V59.4927C41.254 55.6687 38.1524 52.5753 34.3326 52.5753C30.5178 52.5753 27.4112 55.6677 27.4112 59.4927C27.4112 63.3207 30.5168 66.4142 34.3326 66.4142C38.1522 66.4142 41.2512 63.3192 41.254 59.4942ZM72.5968 59.4942V59.4927C72.5968 55.6703 69.5007 52.5753 65.6773 52.5753C61.8586 52.5753 58.7539 55.6677 58.7539 59.4927C58.7539 63.3212 61.86 66.4142 65.6773 66.4142C69.5031 66.4142 72.594 63.3171 72.5968 59.4942Z" fill="black" stroke="black" stroke-width="4"/>
</svg>
