<svg width="360" height="24" viewBox="0 0 360 24" fill="none" xmlns="http://www.w3.org/2000/svg">
<path fill-rule="evenodd" clip-rule="evenodd" d="M0 0V24H360V0H0Z" fill="black" fill-opacity="0.4"/>
<path d="M322.147 17H320.876V8.57129L318.326 9.50781V8.35938L321.949 6.99902H322.147V17ZM330.009 17H328.737V8.57129L326.188 9.50781V8.35938L329.811 6.99902H330.009V17ZM333.803 16.3369C333.803 16.1182 333.867 15.9359 333.994 15.79C334.126 15.6442 334.322 15.5713 334.582 15.5713C334.842 15.5713 335.038 15.6442 335.17 15.79C335.307 15.9359 335.375 16.1182 335.375 16.3369C335.375 16.5465 335.307 16.722 335.17 16.8633C335.038 17.0046 334.842 17.0752 334.582 17.0752C334.322 17.0752 334.126 17.0046 333.994 16.8633C333.867 16.722 333.803 16.5465 333.803 16.3369ZM333.81 10.3008C333.81 10.082 333.873 9.89974 334.001 9.75391C334.133 9.60807 334.329 9.53516 334.589 9.53516C334.849 9.53516 335.045 9.60807 335.177 9.75391C335.313 9.89974 335.382 10.082 335.382 10.3008C335.382 10.5104 335.313 10.6859 335.177 10.8271C335.045 10.9684 334.849 11.0391 334.589 11.0391C334.329 11.0391 334.133 10.9684 334.001 10.8271C333.873 10.6859 333.81 10.5104 333.81 10.3008ZM341.261 17H339.989V8.57129L337.439 9.50781V8.35938L341.062 6.99902H341.261V17ZM349.122 17H347.851V8.57129L345.301 9.50781V8.35938L348.924 6.99902H349.122V17Z" fill="white"/>
<path d="M265 19.1016L256.281 8.23828C259.117 6.24609 262.023 5.25 265 5.25C267.977 5.25 270.883 6.24609 273.719 8.23828L265 19.1016Z" fill="white"/>
<path d="M277.512 19.4883L292.488 4.51172V19.4883H277.512Z" fill="white"/>
<path d="M307.742 5.98828C308.023 5.98828 308.258 6.09375 308.445 6.30469C308.656 6.49219 308.762 6.72656 308.762 7.00781V18.5039C308.762 18.7852 308.656 19.0195 308.445 19.207C308.258 19.3945 308.023 19.4883 307.742 19.4883H302.258C301.977 19.4883 301.73 19.3945 301.52 19.207C301.332 19.0195 301.238 18.7852 301.238 18.5039V7.00781C301.238 6.72656 301.332 6.49219 301.52 6.30469C301.73 6.09375 301.977 5.98828 302.258 5.98828H303.488V4.51172H306.512V5.98828H307.742Z" fill="white"/>
</svg>
