<svg width="11" height="21" viewBox="0 0 11 21" fill="none" xmlns="http://www.w3.org/2000/svg">
<mask id="path-1-inside-1" fill="white">
<path fill-rule="evenodd" clip-rule="evenodd" d="M10.9489 20.0638V20.1055C10.9491 20.0985 10.9491 20.0916 10.9491 20.0846C10.9491 20.0776 10.9491 20.0707 10.9489 20.0638ZM7.53071 3.66833C5.08435 4.82502 3.30847 7.18498 2.96502 9.99613C2.89805 10.5443 2.4568 10.994 1.90452 10.994C1.35223 10.994 0.89934 10.5448 0.953103 9.99515C1.31632 6.28168 3.68338 3.15912 6.95343 1.73328C7.81434 1.35791 8.73786 1.1001 9.70389 0.980103C9.75062 0.974304 9.79743 0.968811 9.84433 0.963684C9.87967 0.959778 9.91507 0.956116 9.95051 0.952576C10.5001 0.898071 10.9491 1.35107 10.9491 1.90332C10.9491 2.38849 10.6019 2.7879 10.146 2.92413C10.0829 2.94293 10.0177 2.95673 9.95115 2.96503C9.09583 3.07159 8.28168 3.31329 7.53071 3.66833Z"/>
</mask>
<path d="M10.9489 20.0638L12.9484 20.0195L8.94892 20.0638H10.9489ZM10.9489 20.1055H8.94892L12.9484 20.1493L10.9489 20.1055ZM7.53071 3.66833L6.67588 1.86022L6.67581 1.86026L7.53071 3.66833ZM6.95343 1.73328L6.15408 -0.100036L6.15406 -0.100026L6.95343 1.73328ZM9.70389 0.980103L9.45758 -1.00467L9.45736 -1.00464L9.70389 0.980103ZM9.84433 0.963684L10.0616 2.95184L10.0641 2.95158L9.84433 0.963684ZM9.95051 0.952576L9.75313 -1.03766L9.75167 -1.03752L9.95051 0.952576ZM10.146 2.92413L10.7172 4.84083L10.7186 4.84041L10.146 2.92413ZM9.95115 2.96503L10.1984 4.94968L10.1985 4.94967L9.95115 2.96503ZM2.96502 9.99613L0.979785 9.75358L2.96502 9.99613ZM8.94892 20.0638V20.1055H12.9489V20.0638H8.94892ZM12.9484 20.1493C12.949 20.125 12.9491 20.1031 12.9491 20.0846H8.94913C8.94913 20.08 8.94917 20.0721 8.9494 20.0616L12.9484 20.1493ZM12.9491 20.0846C12.9491 20.0662 12.949 20.0441 12.9484 20.0195L8.94941 20.108C8.94917 20.0972 8.94913 20.0891 8.94913 20.0846H12.9491ZM4.95026 10.2387C5.20858 8.12436 6.54532 6.34654 8.3856 5.47641L6.67581 1.86026C3.62339 3.30351 1.40837 6.24561 0.979785 9.75358L4.95026 10.2387ZM6.15406 -0.100026C2.23423 1.60914 -0.602008 5.34911 -1.0374 9.80045L2.9436 10.1898C3.23465 7.21426 5.13253 4.7091 7.75281 3.56658L6.15406 -0.100026ZM9.45736 -1.00464C8.29766 -0.860593 7.18816 -0.550911 6.15408 -0.100036L7.75279 3.56659C8.44051 3.26673 9.17806 3.06079 9.95043 2.96485L9.45736 -1.00464ZM9.62702 -1.02447C9.56963 -1.0182 9.51311 -1.01156 9.45758 -1.00467L9.95021 2.96488C9.98812 2.96017 10.0252 2.95582 10.0616 2.95184L9.62702 -1.02447ZM9.75167 -1.03752C9.7118 -1.03353 9.66904 -1.02912 9.6246 -1.02421L10.0641 2.95158C10.0903 2.94868 10.1184 2.94576 10.1493 2.94267L9.75167 -1.03752ZM12.9491 1.90332C12.9491 0.305699 11.6119 -1.222 9.75313 -1.03766L10.1479 2.94281C9.38826 3.01815 8.94913 2.39645 8.94913 1.90332H12.9491ZM10.7186 4.84041C11.8887 4.49076 12.9491 3.40375 12.9491 1.90332H8.94913C8.94913 1.37323 9.31507 1.08505 9.57339 1.00786L10.7186 4.84041ZM10.1985 4.94967C10.376 4.92755 10.5494 4.89083 10.7172 4.84083L9.57479 1.00744C9.61641 0.995034 9.6595 0.985903 9.70375 0.980387L10.1985 4.94967ZM8.38553 5.47645C8.94821 5.21043 9.55758 5.02953 10.1984 4.94968L9.70387 0.980372C8.63408 1.11366 7.61516 1.41616 6.67588 1.86022L8.38553 5.47645ZM1.90452 8.99396C2.399 8.99396 3.01758 9.4335 2.9436 10.1898L-1.0374 9.80045C-1.2189 11.6561 0.305464 12.994 1.90452 12.994V8.99396ZM0.979785 9.75358C1.01665 9.45182 1.29878 8.99396 1.90452 8.99396V12.994C3.61482 12.994 4.77944 11.6369 4.95026 10.2387L0.979785 9.75358Z" fill="#FFA84F" mask="url(#path-1-inside-1)"/>
<mask id="path-3-inside-2" fill="white">
<path fill-rule="evenodd" clip-rule="evenodd" d="M6.90586 10.993C6.35357 10.993 5.8956 10.5411 6.00263 9.99924C6.08584 9.57806 6.22091 9.17569 6.40085 8.79919C6.75568 8.05676 7.28501 7.41485 7.93525 6.92736C8.34632 6.61913 8.80573 6.37267 9.29993 6.20153C9.50846 6.12927 9.72318 6.07049 9.94309 6.02612C10.4845 5.91686 10.9368 6.37499 10.9368 6.92736C10.9368 7.34332 10.6759 7.69091 10.3241 7.91442C10.2089 7.9876 10.0839 8.04754 9.95517 8.09216C8.93909 8.44427 8.16044 9.32775 7.95768 10.4245C7.90032 10.7349 7.64993 10.993 7.33423 10.993H6.90586Z"/>
</mask>
<path d="M6.40085 8.79919L9.1076 10.0928L9.10761 10.0928L6.40085 8.79919ZM7.93525 6.92736L9.7348 9.3277L9.73496 9.32757L7.93525 6.92736ZM9.29993 6.20153L10.2816 9.03636L10.2823 9.03614L9.29993 6.20153ZM9.94309 6.02612L10.5365 8.96685L10.5365 8.96684L9.94309 6.02612ZM10.3241 7.91442L11.9324 10.4469L11.933 10.4465L10.3241 7.91442ZM9.95517 8.09216L8.9729 5.25753L8.97287 5.25753L9.95517 8.09216ZM3.6941 7.50555C3.40732 8.10559 3.19204 8.74699 3.05952 9.41781L8.94575 10.5807C8.97964 10.4091 9.0345 10.2458 9.1076 10.0928L3.6941 7.50555ZM6.1357 4.52702C5.10067 5.30299 4.25895 6.32368 3.6941 7.50556L9.10761 10.0928C9.25241 9.78983 9.46935 9.52671 9.7348 9.3277L6.1357 4.52702ZM8.31823 3.3667C7.5254 3.64126 6.79077 4.03584 6.13553 4.52715L9.73496 9.32757C9.90186 9.20243 10.0861 9.10409 10.2816 9.03636L8.31823 3.3667ZM9.34972 3.08538C8.99735 3.15648 8.6527 3.25079 8.31759 3.36692L10.2823 9.03614C10.3642 9.00774 10.449 8.98449 10.5365 8.96685L9.34972 3.08538ZM13.9368 6.92736C13.9368 4.92526 12.1617 2.51794 9.34967 3.08539L10.5365 8.96684C9.77278 9.12095 9.05289 8.85128 8.58821 8.41446C8.15328 8.00562 7.93683 7.46164 7.93683 6.92736H13.9368ZM11.933 10.4465C12.8332 9.87458 13.9368 8.697 13.9368 6.92736H7.93683C7.93683 5.98963 8.51866 5.50724 8.71528 5.38231L11.933 10.4465ZM10.9375 10.9268C11.2813 10.8076 11.6168 10.6473 11.9324 10.4469L8.71585 5.38195C8.80095 5.3279 8.8866 5.28743 8.9729 5.25753L10.9375 10.9268ZM10.9077 10.9699C10.9098 10.9583 10.9144 10.9487 10.9223 10.9395C10.9315 10.9288 10.9389 10.9263 10.9375 10.9268L8.97287 5.25753C6.94617 5.95986 5.40848 7.7111 5.00767 9.87911L10.9077 10.9699ZM6.90586 13.993H7.33423V7.99297H6.90586V13.993ZM5.0076 9.87949C5.15076 9.10454 5.8856 7.99297 7.33423 7.99297V13.993C9.41426 13.993 10.6499 12.3654 10.9078 10.9695L5.0076 9.87949ZM3.05952 9.41781C2.50612 12.219 4.89968 13.993 6.90586 13.993V7.99297C7.44 7.99297 7.98307 8.20931 8.39115 8.64272C8.82661 9.10519 9.0959 9.82063 8.94575 10.5807L3.05952 9.41781Z" fill="#FFA84F" mask="url(#path-3-inside-2)"/>
</svg>
