<svg width="50" height="50" viewBox="0 0 50 50" fill="none" xmlns="http://www.w3.org/2000/svg">
<circle cx="25" cy="25" r="22" fill="#FAFAFA" stroke="black" stroke-width="6"/>
<path d="M36.2894 13.5256L36.2893 13.5256L36.2907 13.5362L37.5445 22.9573V35.8537H35.931H35.431V36.3537V37.8834C35.431 38.5557 35.2507 39.0016 34.9786 39.2792C34.708 39.5553 34.2764 39.7367 33.6244 39.7367C32.9718 39.7367 32.5393 39.5553 32.2681 39.279C31.9955 39.0012 31.8149 38.5554 31.8149 37.8834V36.3537V35.8537H31.3149H18.6851H18.1851V36.3537V37.8834C18.1851 38.5554 18.0045 39.0012 17.7319 39.279C17.4606 39.5553 17.0281 39.7367 16.3756 39.7367C15.7241 39.7367 15.2925 39.5554 15.0217 39.2792C14.7494 39.0015 14.569 38.5556 14.569 37.8834V36.3537V35.8537H14.069H12.4566L12.4604 22.8936L13.6634 13.5304C13.6634 13.5299 13.6635 13.5293 13.6636 13.5288C13.8265 12.3317 14.7631 11.2785 16.724 10.4673C19.0905 9.49808 21.8724 9.00006 25.001 9.00006C28.1295 9.00006 30.9105 9.49905 33.2751 10.4673C35.2407 11.2798 36.1567 12.3341 36.2894 13.5256ZM15.645 15.2045L15.6448 15.2044L15.6433 15.2158L14.6158 22.8535L14.6107 22.8914L14.6115 22.9297C14.6147 23.1002 14.6346 23.4016 14.8696 23.6268C15.0968 23.8445 15.4047 23.8757 15.6465 23.8757H34.3555C34.5972 23.8757 34.9036 23.8441 35.1306 23.628C35.3657 23.4042 35.3876 23.1044 35.3914 22.9323L35.3925 22.8848L35.3846 22.8379L35.3492 22.6286L34.3587 15.2073L34.3589 15.2073L34.3571 15.1963C34.3334 15.0447 34.2797 14.7966 34.0694 14.6098C33.8588 14.4226 33.5923 14.3846 33.3638 14.3846H28.9474V11.6471V11.1471H28.4474H21.5566H21.0566V11.6471V14.3846H16.6381C16.4108 14.3846 16.1417 14.4219 15.9299 14.6136C15.7213 14.8024 15.6688 15.0532 15.645 15.2045ZM20.127 29.7467V29.7463C20.127 28.111 18.8006 26.7876 17.1663 26.7876C15.5343 26.7876 14.2056 28.1107 14.2056 29.7463C14.2056 31.3837 15.534 32.707 17.1663 32.707C18.8 32.707 20.1258 31.3833 20.127 29.7467ZM35.7984 29.7467V29.7463C35.7984 28.1114 34.4743 26.7876 32.8387 26.7876C31.2046 26.7876 29.8769 28.1107 29.8769 29.7463C29.8769 31.3838 31.2055 32.707 32.8387 32.707C34.4749 32.707 35.7972 31.3827 35.7984 29.7467Z" fill="black" stroke="black"/>
</svg>
